<?xml version="1.0" encoding="UTF-8"?>
<!DOCTYPE svg PUBLIC "-//W3C//DTD SVG 1.1//EN" "http://www.w3.org/Graphics/SVG/1.1/DTD/svg11.dtd">
<svg xmlns="http://www.w3.org/2000/svg" version="1.1" width="64px" height="64px" style="shape-rendering:geometricPrecision; text-rendering:geometricPrecision; image-rendering:optimizeQuality; fill-rule:evenodd; clip-rule:evenodd" xmlns:xlink="http://www.w3.org/1999/xlink">
<g><path style="opacity:0.797" fill="currentColor" d="M 28.5,0.5 C 36.0024,-1.2188 41.669,1.11453 45.5,7.5C 54.9389,8.22575 58.2723,13.0591 55.5,22C 58.0075,22.0929 60.1741,22.9262 62,24.5C 62.6667,36.5 62.6667,48.5 62,60.5C 61.5,61 61,61.5 60.5,62C 51.1667,62.6667 41.8333,62.6667 32.5,62C 32,61.5 31.5,61 31,60.5C 30.5017,57.1832 30.335,53.8499 30.5,50.5C 29.1667,50.5 27.8333,50.5 26.5,50.5C 26.4222,56.1615 23.7555,59.9948 18.5,62C 4.66667,64.1667 -1.16667,58.3333 1,44.5C 3.00517,39.2445 6.8385,36.5778 12.5,36.5C 12.5,33.1667 12.5,29.8333 12.5,26.5C 8.37058,26.0348 6.37058,23.7015 6.5,19.5C 6.37058,15.2985 8.37058,12.9652 12.5,12.5C 12.393,10.0968 13.393,8.26351 15.5,7C 17.9005,6.81416 20.2338,6.31416 22.5,5.5C 24.1619,3.34834 26.1619,1.68167 28.5,0.5 Z M 29.5,4.5 C 30.6216,3.84417 31.9549,3.51084 33.5,3.5C 35.8825,3.36103 37.8825,4.02769 39.5,5.5C 38.391,5.55688 37.391,5.89022 36.5,6.5C 34.7211,4.65649 32.3878,3.98983 29.5,4.5 Z M 36.5,6.5 C 37.8333,10.5 39.1667,10.5 40.5,6.5C 41.9649,7.40567 42.9649,8.73901 43.5,10.5C 45.9688,11.1681 48.3021,11.8347 50.5,12.5C 49.5,12.5 48.5,12.5 47.5,12.5C 47.8333,15.5 49.5,17.1667 52.5,17.5C 52.5,16.5 52.5,15.5 52.5,14.5C 53.9791,17.1431 53.6458,19.6431 51.5,22C 41.6671,22.1893 32.0005,23.0226 22.5,24.5C 18.2032,24.7217 14.2032,24.055 10.5,22.5C 13.5719,22.8174 16.5719,22.4841 19.5,21.5C 17.604,20.5344 15.604,20.2011 13.5,20.5C 13.5,19.1667 13.5,17.8333 13.5,16.5C 12.5,16.5 11.5,16.5 10.5,16.5C 13.6493,15.5135 15.6493,13.3468 16.5,10C 18.7695,9.2419 20.9361,9.40857 23,10.5C 23.8518,9.42925 24.6851,8.42925 25.5,7.5C 26.5678,11.3404 28.2345,11.5071 30.5,8C 32.5856,7.68475 34.5856,7.18475 36.5,6.5 Z M 35.5,24.5 C 42.8409,24.3337 50.1742,24.5003 57.5,25C 58.3081,25.3076 58.9747,25.8076 59.5,26.5C 60.6423,36.7863 60.809,47.1196 60,57.5C 59.6924,58.3081 59.1924,58.9747 58.5,59.5C 50.8829,60.6334 43.2163,60.8001 35.5,60C 34.6919,59.6924 34.0253,59.1924 33.5,58.5C 32.3577,48.2137 32.191,37.8804 33,27.5C 33.6979,26.3094 34.5313,25.3094 35.5,24.5 Z M 14.5,26.5 C 19.8333,26.5 25.1667,26.5 30.5,26.5C 30.5,33.8333 30.5,41.1667 30.5,48.5C 29.1667,48.5 27.8333,48.5 26.5,48.5C 26.1667,40.8333 22.1667,36.8333 14.5,36.5C 14.5,33.1667 14.5,29.8333 14.5,26.5 Z M 36.5,28.5 C 43.1667,28.5 49.8333,28.5 56.5,28.5C 56.5,31.1667 56.5,33.8333 56.5,36.5C 49.8333,36.5 43.1667,36.5 36.5,36.5C 36.5,33.8333 36.5,31.1667 36.5,28.5 Z M 36.5,38.5 C 43.1667,38.5 49.8333,38.5 56.5,38.5C 56.5,41.1667 56.5,43.8333 56.5,46.5C 49.8333,46.5 43.1667,46.5 36.5,46.5C 36.5,43.8333 36.5,41.1667 36.5,38.5 Z M 12.5,39.5 C 13.9953,39.4148 14.9953,40.0815 15.5,41.5C 14.1667,42.8333 12.8333,42.8333 11.5,41.5C 11.8627,40.8165 12.1961,40.1499 12.5,39.5 Z M 4.5,44.5 C 5.5,44.5 6.5,44.5 7.5,44.5C 7.5,45.8333 7.5,47.1667 7.5,48.5C 6.16667,48.5 4.83333,48.5 3.5,48.5C 3.43255,47.0413 3.76589,45.7079 4.5,44.5 Z M 10.5,44.5 C 12.5,44.5 14.5,44.5 16.5,44.5C 16.5,45.8333 16.5,47.1667 16.5,48.5C 14.5,48.5 12.5,48.5 10.5,48.5C 10.5,47.1667 10.5,45.8333 10.5,44.5 Z M 19.5,44.5 C 22.5,44.1667 23.8333,45.5 23.5,48.5C 22.1667,48.5 20.8333,48.5 19.5,48.5C 19.5,47.1667 19.5,45.8333 19.5,44.5 Z M 36.5,48.5 C 43.1667,48.5 49.8333,48.5 56.5,48.5C 56.5,51.1667 56.5,53.8333 56.5,56.5C 49.8333,56.5 43.1667,56.5 36.5,56.5C 36.5,53.8333 36.5,51.1667 36.5,48.5 Z M 3.5,50.5 C 4.83333,50.5 6.16667,50.5 7.5,50.5C 7.5,51.8333 7.5,53.1667 7.5,54.5C 4.5,54.8333 3.16667,53.5 3.5,50.5 Z M 10.5,50.5 C 12.5,50.5 14.5,50.5 16.5,50.5C 16.5,51.8333 16.5,53.1667 16.5,54.5C 14.5,54.5 12.5,54.5 10.5,54.5C 10.5,53.1667 10.5,51.8333 10.5,50.5 Z M 19.5,50.5 C 20.8333,50.5 22.1667,50.5 23.5,50.5C 23.8333,53.5 22.5,54.8333 19.5,54.5C 19.5,53.1667 19.5,51.8333 19.5,50.5 Z M 11.5,56.5 C 12.9778,56.238 14.3112,56.5713 15.5,57.5C 13.5365,60.1939 12.2032,59.8606 11.5,56.5 Z"/></g>
<g><path style="opacity:0.582" fill="currentColor" d="M 29.5,4.5 C 32.3878,3.98983 34.7211,4.65649 36.5,6.5C 34.5856,7.18475 32.5856,7.68475 30.5,8C 28.2345,11.5071 26.5678,11.3404 25.5,7.5C 26.1667,7.5 26.5,7.16667 26.5,6.5C 27.1667,6.5 27.5,6.16667 27.5,5.5C 28.4916,5.67158 29.1583,5.33825 29.5,4.5 Z"/></g>
<g><path style="opacity:0.431" fill="currentColor" d="M 39.5,5.5 C 39.5,6.16667 39.8333,6.5 40.5,6.5C 39.1667,10.5 37.8333,10.5 36.5,6.5C 37.391,5.89022 38.391,5.55688 39.5,5.5 Z"/></g>
<g><path style="opacity:0.701" fill="currentColor" d="M 50.5,12.5 C 50.5,13.1667 50.8333,13.5 51.5,13.5C 51.5,14.1667 51.8333,14.5 52.5,14.5C 52.5,15.5 52.5,16.5 52.5,17.5C 49.5,17.1667 47.8333,15.5 47.5,12.5C 48.5,12.5 49.5,12.5 50.5,12.5 Z"/></g>
<g><path style="opacity:0.808" fill="currentColor" d="M 10.5,16.5 C 11.5,16.5 12.5,16.5 13.5,16.5C 13.5,17.8333 13.5,19.1667 13.5,20.5C 15.604,20.2011 17.604,20.5344 19.5,21.5C 16.5719,22.4841 13.5719,22.8174 10.5,22.5C 10.5,20.5 10.5,18.5 10.5,16.5 Z"/></g>
<g><path style="opacity:1" fill="currentColor" d="M 21.5,20.5 C 23.337,20.6395 23.6704,21.3061 22.5,22.5C 21.7025,22.0431 21.3691,21.3764 21.5,20.5 Z"/></g>
<g><path style="opacity:0.987" fill="currentColor" d="M 34.5,26.5 C 42.5,26.5 50.5,26.5 58.5,26.5C 58.5,37.1667 58.5,47.8333 58.5,58.5C 50.5,58.5 42.5,58.5 34.5,58.5C 34.5,47.8333 34.5,37.1667 34.5,26.5 Z M 36.5,28.5 C 36.5,31.1667 36.5,33.8333 36.5,36.5C 43.1667,36.5 49.8333,36.5 56.5,36.5C 56.5,33.8333 56.5,31.1667 56.5,28.5C 49.8333,28.5 43.1667,28.5 36.5,28.5 Z M 36.5,38.5 C 36.5,41.1667 36.5,43.8333 36.5,46.5C 43.1667,46.5 49.8333,46.5 56.5,46.5C 56.5,43.8333 56.5,41.1667 56.5,38.5C 49.8333,38.5 43.1667,38.5 36.5,38.5 Z M 36.5,48.5 C 36.5,51.1667 36.5,53.8333 36.5,56.5C 43.1667,56.5 49.8333,56.5 56.5,56.5C 56.5,53.8333 56.5,51.1667 56.5,48.5C 49.8333,48.5 43.1667,48.5 36.5,48.5 Z"/></g>
<g><path style="opacity:1" fill="currentColor" d="M 38.5,30.5 C 39.5862,30.62 40.2528,31.2867 40.5,32.5C 40.1667,33.1667 39.8333,33.8333 39.5,34.5C 38.5713,33.3112 38.238,31.9778 38.5,30.5 Z"/></g>
<g><path style="opacity:1" fill="currentColor" d="M 42.5,30.5 C 43.5862,30.62 44.2528,31.2867 44.5,32.5C 44.1667,33.1667 43.8333,33.8333 43.5,34.5C 42.5713,33.3112 42.238,31.9778 42.5,30.5 Z"/></g>
<g><path style="opacity:1" fill="currentColor" d="M 46.5,30.5 C 47.5862,30.62 48.2528,31.2867 48.5,32.5C 48.1667,33.1667 47.8333,33.8333 47.5,34.5C 46.5713,33.3112 46.238,31.9778 46.5,30.5 Z"/></g>
<g><path style="opacity:1" fill="currentColor" d="M 44.5,40.5 C 45.5862,40.62 46.2528,41.2867 46.5,42.5C 46.1667,43.1667 45.8333,43.8333 45.5,44.5C 44.5713,43.3112 44.238,41.9778 44.5,40.5 Z"/></g>
<g><path style="opacity:1" fill="currentColor" d="M 48.5,40.5 C 49.5862,40.62 50.2528,41.2867 50.5,42.5C 50.1667,43.1667 49.8333,43.8333 49.5,44.5C 48.5713,43.3112 48.238,41.9778 48.5,40.5 Z"/></g>
<g><path style="opacity:1" fill="currentColor" d="M 52.5,40.5 C 53.5862,40.62 54.2528,41.2867 54.5,42.5C 54.1667,43.1667 53.8333,43.8333 53.5,44.5C 52.5713,43.3112 52.238,41.9778 52.5,40.5 Z"/></g>
<g><path style="opacity:1" fill="currentColor" d="M 38.5,50.5 C 39.5862,50.62 40.2528,51.2867 40.5,52.5C 40.1667,53.1667 39.8333,53.8333 39.5,54.5C 38.5713,53.3112 38.238,51.9778 38.5,50.5 Z"/></g>
<g><path style="opacity:1" fill="currentColor" d="M 42.5,50.5 C 43.5862,50.62 44.2528,51.2867 44.5,52.5C 44.1667,53.1667 43.8333,53.8333 43.5,54.5C 42.5713,53.3112 42.238,51.9778 42.5,50.5 Z"/></g>
<g><path style="opacity:1" fill="currentColor" d="M 46.5,50.5 C 47.5862,50.62 48.2528,51.2867 48.5,52.5C 48.1667,53.1667 47.8333,53.8333 47.5,54.5C 46.5713,53.3112 46.238,51.9778 46.5,50.5 Z"/></g>
</svg>
